<?xml version="1.0" encoding="utf-8"?><svg xmlns="http://www.w3.org/2000/svg" xmlns:xlink="http://www.w3.org/1999/xlink" width="1366" height="617" preserveAspectRatio="xMidYMid" viewBox="0 0 1366 617" style="z-index:1;margin-right:-2px;display:block;background-repeat-y:initial;background-repeat-x:initial;background-color:;animation-play-state:paused" ><g transform="translate(683,308.5) scale(1,1) translate(-683,-308.5)" style="transform:matrix(1, 0, 0, 1, 0, 0);animation-play-state:paused" ><linearGradient id="lg-0.11995548876221629" x1="0" x2="1" y1="0" y2="0" style="animation-play-state:paused" ><stop stop-color="#ffffff" offset="0" style="animation-play-state:paused" ></stop>

  
<stop stop-color="#0A4B67" offset="1" style="animation-play-state:paused" ></stop></linearGradient>
<path d="M 0 0 M 0 574.697 Q 136.6 506.029 273.2 500.704 T 546.4 515.145 T 819.6 518.609 T 1092.8 465.791 T 1366 424.279 L 1366 182.272 Q 1229.4 190.818 1092.8 181.578 T 819.6 160.409 T 546.4 111.509 T 273.2 91.8571 T 0 27.1899 Z" fill="url(#lg-0.11995548876221629)" opacity="0.4" style="opacity:0.4;animation-play-state:paused" ></path>
<path d="M 0 0 M 0 560.057 Q 136.6 509.13 273.2 504.396 T 546.4 492.921 T 819.6 513.311 T 1092.8 473.95 T 1366 458.183 L 1366 202.213 Q 1229.4 189.421 1092.8 181.898 T 819.6 108.553 T 546.4 81.8031 T 273.2 106.171 T 0 95.7278 Z" fill="url(#lg-0.11995548876221629)" opacity="0.4" style="opacity:0.4;animation-play-state:paused" ></path>
<path d="M 0 0 M 0 563.837 Q 136.6 515.696 273.2 510.421 T 546.4 502.65 T 819.6 502.704 T 1092.8 480.801 T 1366 459.759 L 1366 172.588 Q 1229.4 158.303 1092.8 156.123 T 819.6 133.95 T 546.4 132.698 T 273.2 72.9316 T 0 56.0188 Z" fill="url(#lg-0.11995548876221629)" opacity="0.4" style="opacity:0.4;animation-play-state:paused" ></path>
<path d="M 0 0 M 0 550.075 Q 136.6 566.932 273.2 558.087 T 546.4 501.178 T 819.6 462.352 T 1092.8 450.144 T 1366 455.58 L 1366 181.096 Q 1229.4 174.247 1092.8 168.436 T 819.6 127.883 T 546.4 121.099 T 273.2 108.969 T 0 86.0871 Z" fill="url(#lg-0.11995548876221629)" opacity="0.4" style="opacity:0.4;animation-play-state:paused" ></path></g></svg>        